<?xml version="1.0" encoding="UTF-8"?>
<svg id="Layer_1" xmlns="http://www.w3.org/2000/svg" version="1.1" xmlns:xlink="http://www.w3.org/1999/xlink" viewBox="0 0 204.28 201.89">
  <!-- Generator: Adobe Illustrator 30.4.0, SVG Export Plug-In . SVG Version: 2.1.4 Build 226)  -->
  <defs>
    <style>
      .st0 {
        fill: #231f20;
      }

      .st1 {
        fill: url(#radial-gradient);
      }

      .st2 {
        fill: #fcee1d;
      }

      .st3 {
        clip-path: url(#clippath);
      }

      .st4 {
        fill: none;
        stroke: #231f20;
        stroke-miterlimit: 10;
        stroke-width: 1.2px;
      }
    </style>
    <clipPath id="clippath">
      <path class="st4" d="M4.38,101.52c0,53.93,43.72,97.64,97.64,97.64s97.64-43.72,97.64-97.64S155.95,3.88,102.02,3.88,4.38,47.6,4.38,101.52"/>
    </clipPath>
    <radialGradient id="radial-gradient" cx="-190.34" cy="520.55" fx="-190.34" fy="520.55" r="1.4" gradientTransform="translate(21457.9727 -80510.2696) scale(112.1782 154.642)" gradientUnits="userSpaceOnUse">
      <stop offset="0" stop-color="#f8ec7e"/>
      <stop offset="1" stop-color="#fee000"/>
    </radialGradient>
  </defs>
  <g>
    <g class="st3">
      <rect class="st1" x="-2.31" y="-2.81" width="208.66" height="208.66"/>
      <path class="st2" d="M84.1,100.26c.64-.35,1.32-.88,2.04-1.57.72-.69,1.46-1.66,2.21-2.9,1.09-1.7,1.85-3.04,2.28-4.04.43-.99.7-1.74.8-2.25.1-.51.08-.84-.05-.99s-.24-.26-.33-.34c-.04-.07-.4.03-1.08.28-.68.26-1.51.82-2.49,1.69-.98.87-2.06,2.17-3.25,3.91s-2.33,4.04-3.43,6.92c.43.04.93.02,1.5-.05.56-.08,1.17-.29,1.81-.65"/>
      <path class="st0" d="M159.6,49.31s.72,6.64-.78,11.94c-1.85-8.19-5.22-13.79-5.22-13.79,0,0,.78,7.16-.96,12.54-1.75-15.66-16.04-24.93-16.04-24.93,0,0,6.83,12.44,5.72,18.13-1.53,7.85-8.91,13.88-6.48,17.33.28,1.53,1.13,3.1,2.3,4.54.24.25.46.49.68.73.33.35.63.68.99,1.04.91.84,1.91,1.59,2.92,2.2l.03.02c1.54.94,3.1,1.71,4.68,2.3,1.18.44,2.47.91,3.42,1.26.8.3,1.6.46,2.36.5.07.03.14.06.21.09,1.18.44,2.47.91,3.42,1.26,1.5.55,2.99.67,4.3.29,2.39-.69,4.28-2.92,4.71-7.96,1.26-14.98-6.26-27.48-6.26-27.48"/>
      <path class="st0" d="M63.7,49.74c5.18-1.45,9.93,1.78,13.59.78,4.96-1.35,7.17-2.88,2.83-13.18,0,0,.09,5.25-6.1,6.69,0,0,4.13-5.23-1.5-11.99,0,0,.23,6.03-3.82,8.51,0,0-1.53-9.01-6.8-10.35,0,0,2.85,5.06-.38,10.39,0,0-3.93-5.74-4.03-8.11,0,0-7.2,8.89-8.13,13.16-.93,4.27,4.37,6.89,14.35,4.1"/>
      <path class="st0" d="M54.09,59.13h.1c1.1.1,1.99-.89,1.89-2.03-.05-.58-.02-1.17.11-1.76.1-.46.48-1.62.48-1.62,0,0-3.21-1.5-8.82.15-5.61,1.65-6.85,7.04-7.39,10.87,0,0,4.51-6.84,13.63-5.61"/>
      <path class="st0" d="M142.59,89.7c-.34-.05-.74.27-1.21.94-.4.45-.71.95-.91,1.49-.2.54-.4,1.09-.6,1.65-.02.16-.07.3-.12.43-.06.13-.1.28-.12.43-.13-.03-.21-.04-.23-.04-.32-.6-.4-1.18-.25-1.76.15-.58.24-1.17.28-1.78-.07.08-.14.13-.21.16-.07.03-.12.08-.17.15-1.43,1.55-2.38,3.28-2.84,5.2-.46,1.91-.33,3.95.42,6.12.51,1.28,1.07,2.05,1.7,2.3.63.26,1.41-.23,2.35-1.46,1.03-1.49,1.79-3.06,2.31-4.72.51-1.65.81-3.39.89-5.23.04-.46.03-1.01-.05-1.64-.07-.63-.21-1.16-.41-1.57-.2-.41-.47-.64-.81-.68"/>
      <path class="st0" d="M142.61,82.16c-3.07-2.91-2.9-4.13-7.64-7.94-2.37-1.91-8.24.07-9.83,3.29-3.8,7.67-3.57,28.92,7.63,37.63,12.56,9.77,28.52-19.92,27.57-25.6-.94-5.68-11.35-1.33-17.73-7.38M149.12,94.67c.17,1.23.13,2.45-.11,3.65-.24,1.2-.65,2.32-1.23,3.35-.58,1.03-1.33,1.95-2.25,2.76-.92.8-1.95,1.42-3.11,1.86-.9.35-1.88.56-2.94.64-1.62.08-3.04-.27-4.26-1.07-1.22-.79-2.19-1.81-2.93-3.06-.74-1.24-1.23-2.61-1.47-4.1-.24-1.49-.21-2.9.11-4.24.36-1.16.82-2.22,1.39-3.16.57-.94,1.23-1.75,1.97-2.42.74-.67,1.53-1.2,2.39-1.58.85-.38,1.75-.6,2.69-.65.72,0,1.28.09,1.68.29.4.2.85.58,1.34,1.14.83-.27,1.7-.2,2.6.23.9.42,1.63.98,2.18,1.68.58.72,1.03,1.47,1.33,2.25.3.78.51,1.6.62,2.45"/>
      <path class="st0" d="M123.59,106.97c-1.57-6.54-2.39-10.39-3.9-20.03-2.11-13.44-8.01-21.07-8.01-21.07,4.81,16.1.3,29.47.06,40.26-.24,10.79,8.9,21.21,13.91,17.77,5.82-3.99.01-8.3-2.05-16.93"/>
      <path class="st0" d="M105.09,51.2c1.96,21.8-7.03,38.31-10.01,52.4-2.98,14.09,5.76,29.09,12.82,25.35,8.21-4.35,2.08-10.86,1.67-22.47-.31-8.79-.31-13.66.22-26.5.73-17.9-4.69-28.78-4.69-28.78"/>
      <path class="st0" d="M80.96,68.93c1.57-8.29-3.08-11.68-7.02-13.32-2.35-.97-7.55-1.71-8.83-1.98h-.02c-1.16-.22-3.75.12-4.42,1.85-.67,1.73.2,3.73,1.95,4.45,1.75.72,3.7-.09,4.38-1.83l.04-.12c.4-1.14,1.58-1.77,2.69-1.38.23.08.47.17.71.27,4.04,1.68,4.61,6.23,4.8,7.6.18,1.32.36,2.58-3.43,8.69-.57-3.1-2.17-6.02-5.17-7.83-8.73-5.29-14.24-.54-14.24-.54,0,0,2.65,1.55,4.81,3.51,4.05,3.67,1.43,8.25,1.23,11.02-.11,1.54.7,4.41,2.8,6.03-1.02.91-1.91,1.66-2.58,2.24-2.61,2.26-15.74,14.74-7.83,22.81,7.92,8.07,17.06-11.4,19.7-14.87,2.64-3.47,8.84-18.31,10.42-26.6"/>
      <path class="st0" d="M78.74,107.62c.2-.81.41-1.57.62-2.29,1.23.81,2.42,1.35,3.56,1.62,2.14.49,4.06.21,5.79-.84,1.73-1.05,3.19-2.52,4.39-4.4,1.2-1.88,2.12-4.02,2.76-6.41.64-2.39.93-4.67.87-6.84-.06-2.17-.48-4.07-1.27-5.7-.79-1.63-2.02-2.63-3.68-3.01-.66-.15-1.39-.2-2.17-.14-.78.06-1.63.28-2.54.66-2.02.78-3.94,2.11-5.77,3.99-1.83,1.88-3.47,4.1-4.93,6.66-1.46,2.56-2.67,5.31-3.63,8.25-.96,2.94-1.58,5.83-1.85,8.66-.15,1.56-.12,3.1.1,4.63.22,1.53.62,2.93,1.2,4.22.58,1.29,1.36,2.38,2.34,3.28.98.9,2.16,1.52,3.54,1.83,1.09.25,2.2.25,3.31,0,1.12-.24,2.17-.65,3.17-1.22,1-.57,1.9-1.25,2.71-2.04.8-.79,1.44-1.6,1.91-2.44.35-.63.51-1.39.47-2.28-.04-.89-.19-1.77-.47-2.63-.28-.86-.62-1.6-1.02-2.23-.4-.63-.79-.98-1.17-1.07-.28-.07-.52.12-.71.55-.32.75-.78,1.52-1.39,2.29-.61.78-1.26,1.45-1.94,2.03-.69.58-1.37,1.04-2.06,1.39-.69.35-1.29.46-1.81.34-.52-.12-.89-.51-1.09-1.18-.2-.67-.14-1.73.2-3.19.18-.84.37-1.67.57-2.48M84.22,94.05c1.19-1.74,2.27-3.04,3.25-3.9.98-.87,1.81-1.43,2.49-1.69.68-.26,1.04-.35,1.08-.28.09.08.2.19.33.34.13.15.15.48.05.99-.1.51-.36,1.26-.8,2.25-.44.99-1.2,2.34-2.28,4.04-.75,1.24-1.49,2.21-2.21,2.9-.72.69-1.4,1.21-2.04,1.57-.64.36-1.24.57-1.81.65-.57.08-1.06.1-1.5.06,1.1-2.88,2.24-5.18,3.43-6.92"/>
      <path class="st0" d="M138.71,164.61c0-.05.02-.1.04-.14.17-.47.34-.95.52-1.43.17-.48.34-.96.49-1.43.14-.36.21-.7.21-1.04,0-.25-.1-.45-.31-.59-.21-.14-.45-.18-.72-.12-.31.04-.61.12-.89.22-.28.1-.53.26-.74.47-.21.21-.41.42-.61.63-.2.22-.37.45-.5.7-1.08,1.81-1.36,3.73-.83,5.77.07.19.15.38.23.55.09.18.17.35.26.51.17.25.38.38.62.39.24,0,.45-.11.62-.34l.05-.1.05-.1c.17-.41.39-.81.65-1.18.26-.37.53-.73.83-1.09.47-.58.96-1.14,1.47-1.68.52-.54,1.07-1.05,1.68-1.52.12-.09.24-.17.36-.25s.23-.16.34-.23c.04.07.04.14.01.19-.02.05-.06.1-.09.14-.17.34-.35.67-.54.99-.19.32-.36.65-.52.99-.36.81-.5,1.68-.41,2.6.03.25.09.5.16.74.07.24.18.48.34.72.31.46.72.77,1.23.93.51.16,1.04.15,1.59-.04.52-.19,1.07-.54,1.65-1.06.58-.51,1.16-1.07,1.73-1.68s1.09-1.22,1.57-1.83c.48-.61.88-1.14,1.19-1.57.05-.12.03-.21-.06-.27-.09-.06-.21-.06-.35,0-.29.32-.65.74-1.08,1.25-.43.51-.89,1.03-1.38,1.55s-1,1.01-1.52,1.47c-.53.45-1.02.77-1.48.96-.21.06-.35.02-.44-.13-.09-.15-.11-.31-.08-.49.02-.16.04-.31.08-.45.04-.14.08-.29.13-.43.19-.46.39-.91.59-1.37.21-.45.4-.91.59-1.39.14-.31.27-.63.39-.94.12-.32.24-.63.36-.94.14-.43.12-.84-.05-1.22-.24-.53-.68-.76-1.32-.69-.29.03-.58.09-.85.19-.28.1-.53.2-.78.32-.6.3-1.15.64-1.64,1.03-.49.39-.96.8-1.41,1.23-.24.22-.48.45-.71.68-.23.23-.48.48-.74.74.02-.1.03-.18.04-.23M128.46,164c.24-.5.54-.96.9-1.38.36-.41.76-.77,1.21-1.07.45-.3.91-.51,1.39-.64.24-.1.5-.11.79-.03s.42.29.4.63c0,.58-.17,1.1-.5,1.58-.34.47-.76.89-1.27,1.24-.51.36-1.07.64-1.68.86-.61.21-1.18.34-1.72.39.07-.55.22-1.07.46-1.58M130.2,166.01c.75-.28,1.42-.64,2.01-1.09.59-.44,1.07-.96,1.45-1.55.37-.59.55-1.26.55-2-.02-.07-.04-.15-.05-.23-.02-.08-.04-.16-.08-.23-.24-.41-.57-.73-.99-.93-.42-.21-.88-.33-1.38-.38-.5-.04-1.02-.03-1.55.03-.53.07-1.03.17-1.5.3-.86.27-1.59.64-2.19,1.13-.6.49-1.09,1.03-1.47,1.61s-.65,1.18-.81,1.8c-.16.62-.22,1.17-.17,1.68.05.44.19.86.4,1.25.22.39.49.74.83,1.03.34.3.72.53,1.16.7.44.17.9.26,1.38.28,1.03,0,2.01-.18,2.93-.54.92-.36,1.79-.83,2.61-1.41.82-.58,1.57-1.23,2.26-1.95.69-.73,1.31-1.44,1.86-2.15.03-.09,0-.18-.1-.27-.02-.03-.06-.04-.13-.02-.07.01-.12.04-.16.07-.52.58-1.08,1.17-1.69,1.79-.61.62-1.27,1.17-1.96,1.65-.7.49-1.42.88-2.18,1.18-.76.3-1.55.42-2.37.38-.22-.01-.4-.08-.52-.19-.12-.11-.22-.24-.28-.4-.07-.16-.11-.32-.12-.5,0-.18,0-.33.01-.47.76-.09,1.51-.27,2.26-.56M122.6,161.93c-.09.12-.18.23-.28.33-.62.56-1.29,1.06-2,1.5-.71.44-1.51.78-2.39,1.03-.05.02-.1.02-.14.02l-.12.02-.02-.09v-.02c.52-.58,1.07-1.12,1.65-1.63.58-.51,1.26-.94,2.01-1.3.14-.07.29-.14.45-.19.16-.05.33-.1.5-.14.07-.01.14-.02.22-.01s.16.01.25.01c0,.19-.04.35-.13.47M127.02,163.27c0-.08-.04-.12-.1-.12s-.14.04-.23.11c-.09.07-.19.19-.27.33-.21.25-.47.58-.77,1-.31.42-.64.84-.99,1.29-.35.44-.72.87-1.1,1.29s-.76.75-1.14,1.01c-.38.26-.75.41-1.11.44-.36.04-.69-.1-.98-.41-.07-.06-.12-.11-.16-.16-.19-.24-.37-.47-.54-.7-.17-.23-.34-.46-.52-.7l.05-.07.06-.04.07-.02c.79-.24,1.5-.55,2.14-.94.64-.39,1.22-.86,1.75-1.41.33-.34.58-.7.76-1.07.18-.37.25-.78.22-1.22-.05-.96-.63-1.42-1.73-1.38-.19,0-.37.02-.54.07-.91.21-1.7.59-2.37,1.13-.29.24-.57.48-.84.72-.27.24-.55.49-.84.74l-.12.09-.12.09c.05-.21.12-.4.19-.59.08-.18.16-.37.25-.54.4-.89.79-1.77,1.19-2.64.4-.87.79-1.75,1.19-2.64.19-.43.31-.84.36-1.24.07-.41-.06-.72-.37-.92-.32-.2-.7-.23-1.15-.08-.14.04-.27.1-.39.18-.12.07-.24.15-.36.22-.31.21-.58.44-.81.7-.23.26-.44.54-.63.83-.78,1.2-1.38,2.44-1.82,3.72-.44,1.28-.78,2.59-1.02,3.94-.1.62-.17,1.24-.19,1.84-.03.61-.06,1.22-.09,1.84-.02.12-.02.23,0,.33.02.1.04.22.08.33.05.28.22.44.52.49.26.04.47-.07.65-.35.07-.12.11-.21.13-.27.14-.3.27-.58.41-.86.14-.28.28-.56.41-.84l.09-.13s.08-.1.12-.16c.17.35.33.66.48.91.15.25.3.47.47.66.16.19.34.37.54.53.2.16.43.33.71.51.41.25.85.43,1.3.53s.94.1,1.46-.02c.36-.07.74-.23,1.12-.47.39-.24.76-.53,1.14-.88.37-.35.73-.73,1.08-1.13.35-.41.67-.82.97-1.24.29-.42.55-.82.76-1.21.22-.39.38-.73.5-1.02.1-.19.15-.33.14-.41M111.11,163.98c.14-.02.27-.06.41-.1.5-.19.95-.44,1.34-.73.4-.3.72-.66.98-1.09.1-.16.18-.37.23-.62.09-.35.03-.66-.16-.93-.19-.27-.49-.45-.9-.56-.24-.06-.49-.11-.73-.14-.25-.04-.5-.05-.74-.03-1.21.04-2.32.33-3.36.87-.65.34-1.25.73-1.78,1.18-.53.44-1.02.94-1.45,1.49-.79,1.05-1.19,2.2-1.19,3.44,0,.47.11.89.34,1.24s.55.67.98.95c.47.33.96.51,1.48.56.53.04,1.06.02,1.61-.07.81-.15,1.64-.41,2.49-.79.85-.38,1.67-.83,2.44-1.37.77-.53,1.47-1.12,2.08-1.76.61-.64,1.07-1.29,1.38-1.94-.05-.13-.11-.21-.18-.22-.07-.01-.14,0-.21.03-.07.04-.13.09-.19.16-.06.07-.1.11-.12.14-.38.49-.82.97-1.33,1.45-.51.48-1.04.92-1.61,1.32-.57.4-1.16.75-1.78,1.04-.62.3-1.23.52-1.83.67-.69.16-1.19-.03-1.5-.58-.12-.19-.19-.39-.22-.59-.03-.2-.02-.4.01-.61.19-1.1.61-2.05,1.25-2.88s1.5-1.53,2.57-2.12c.14-.07.28-.14.43-.2.15-.06.29-.1.43-.13.12-.03.25-.04.39-.04s.25.02.34.07c.14.07.19.17.16.28-.03.11-.07.23-.1.34-.05.16-.11.31-.18.44-.38.64-.95,1.11-1.7,1.42-.1.04-.21.09-.31.12-.1.04-.19.12-.26.25.19.04.35.06.49.03M103.83,156.1c-.16-.23-.35-.41-.59-.53-.24-.12-.5-.2-.77-.21-.28-.02-.53.03-.75.13-.33.16-.6.36-.81.59-.22.23-.36.51-.43.83-.05.22-.05.43.01.62.06.19.16.36.31.51.15.15.33.26.54.34.21.08.45.12.71.1.17-.02.36-.06.57-.14s.4-.19.58-.31c.18-.12.34-.26.48-.41.14-.15.23-.3.28-.47l.05-.13.03-.11c.02-.31-.05-.58-.21-.81M100.38,167.43c.05-.14.1-.29.16-.43.29-.81.58-1.62.86-2.43.28-.81.56-1.62.84-2.45.09-.21.16-.42.21-.64.05-.22.09-.44.1-.67.03-.4-.11-.7-.44-.91-.33-.21-.71-.24-1.16-.11-.19.06-.37.13-.54.22-.17.09-.34.19-.52.31-.84.62-1.46,1.38-1.86,2.29-.17.4-.32.8-.45,1.21-.13.41-.25.82-.37,1.23-.21.73-.26,1.47-.16,2.22.05.28.14.55.26.81.12.26.29.49.52.7.31.34.69.55,1.15.62s.92,0,1.38-.22c.45-.21.97-.54,1.56-.99.59-.45,1.18-.95,1.75-1.49.58-.54,1.11-1.08,1.61-1.63.5-.55.88-1.02,1.14-1.42.03-.04.04-.1.02-.16s-.04-.1-.08-.13c-.03-.03-.09-.04-.17-.03s-.13.03-.17.06c-.41.43-.88.9-1.39,1.4-.52.5-1.04.98-1.56,1.43-.53.45-1.03.83-1.51,1.14-.48.31-.89.48-1.21.51-.04-.15-.03-.29.02-.43M89.64,162.64c.15-.4.3-.8.45-1.2.15-.4.31-.81.48-1.22.24-.62.52-1.31.83-2.05.31-.75.58-1.43.83-2.05.09-.16.14-.34.16-.52.02-.19.03-.37.05-.54.03-.16,0-.29-.1-.38-.1-.09-.22-.17-.36-.24-.16-.07-.3-.1-.44-.08-.14.02-.28.06-.44.12-.34.15-.65.33-.92.54-.27.21-.52.45-.76.7-.43.46-.83.96-1.2,1.5-.37.54-.71,1.1-1.01,1.68-.3.58-.57,1.16-.8,1.76-.23.6-.43,1.19-.58,1.76-.16.53-.27,1.07-.36,1.61-.09.54-.17,1.08-.26,1.61-.05.37-.09.74-.1,1.1-.02.36-.03.73-.03,1.1,0,.32.08.62.23.89.12.22.29.34.52.37.22.02.43-.05.62-.21.1-.09.19-.19.26-.3.07-.11.13-.23.18-.34.12-.18.23-.36.32-.54.09-.19.19-.37.3-.54.21-.37.49-.8.86-1.29.37-.49.78-.97,1.21-1.43.44-.47.9-.9,1.38-1.3.48-.4.93-.7,1.34-.91-.17.52-.4,1.05-.7,1.61-.29.56-.52,1.11-.7,1.68-.14.41-.22.83-.25,1.23-.02.41-.01.83.04,1.26.05.3.14.57.27.82.13.25.31.48.55.69.24.22.51.37.81.43.3.07.62.03.97-.1.5-.24,1.02-.58,1.57-1.04.55-.46,1.08-.96,1.6-1.51.52-.55,1-1.11,1.46-1.7s.85-1.12,1.17-1.61c.09-.16.15-.31.18-.44.03-.15,0-.24-.1-.28s-.22-.01-.36.08c-.05.03-.09.07-.13.13-.04.06-.07.11-.1.16-.16.22-.36.5-.62.84-.26.34-.55.7-.88,1.08-.33.38-.67.75-1.02,1.12-.35.37-.69.7-1.02.99-.33.29-.63.52-.9.7-.27.18-.49.25-.65.22.21-.68.47-1.33.79-1.94.32-.61.62-1.25.89-1.9.17-.4.3-.81.37-1.22.08-.41.1-.84.06-1.27-.02-.18-.05-.36-.1-.55-.05-.19-.12-.37-.21-.53-.12-.25-.3-.43-.55-.54-.25-.11-.52-.14-.81-.08-.91.21-1.7.53-2.37.95-.67.43-1.35.93-2.04,1.51.03-.15.07-.27.1-.35M79.03,159.74c0,.07.03.11.1.14.1.09.21.17.34.25.12.08.26.15.41.21.65.19,1.32.18,2.01-.02,2.05-.62,3.29-1.84,3.74-3.64.14-.58.12-1.12-.05-1.63-.17-.51-.6-.96-1.29-1.34-.55-.19-1.09-.33-1.61-.41-.53-.08-1.17-.08-1.92.01-1.07.16-2.02.46-2.85.9-.84.44-1.62.95-2.36,1.54-1.38,1.11-2.4,2.35-3.07,3.72-.67,1.37-1.09,2.85-1.27,4.45-.1,1.36.18,2.69.85,3.97.21.39.47.73.8,1.03.33.3.71.55,1.14.73.43.19.9.31,1.42.37.52.06,1.07.03,1.65-.09,1.03-.21,2.05-.52,3.06-.93,1.01-.41,1.96-.91,2.86-1.48.9-.57,1.73-1.21,2.49-1.91.76-.7,1.41-1.44,1.96-2.21.03-.04.07-.1.1-.17.03-.07.05-.12.05-.18s-.02-.09-.05-.12c-.04-.03-.09-.02-.18.02-.1.09-.21.18-.31.28-.1.1-.21.19-.31.28-.38.43-.88.9-1.51,1.4-.63.5-1.31.98-2.05,1.44-.74.46-1.5.86-2.28,1.2-.78.34-1.53.55-2.25.63-.71.08-1.36,0-1.94-.22-.58-.23-1.01-.69-1.3-1.39-.24-1.02-.32-2.02-.23-2.99.09-.97.38-1.91.88-2.83.31-.55.69-1.12,1.14-1.71.45-.59.95-1.15,1.52-1.67.57-.52,1.19-.98,1.86-1.39.67-.41,1.37-.71,2.09-.9.14-.04.29-.09.47-.12.17-.04.35-.05.53-.04.18,0,.35.05.52.12.16.07.31.2.45.38.22.35.3.74.24,1.14-.06.41-.22.81-.48,1.21-.26.4-.59.76-1.01,1.09-.41.32-.86.58-1.33.78-.47.19-.96.29-1.47.29s-.99-.14-1.43-.42l-.16.04s.03.1.03.17"/>
      <polygon class="st0" points="61.22 151.35 66.9 151.35 66.9 143.41 74.31 129.81 67.43 129.81 64.16 136.77 63.96 136.77 60.69 129.81 53.81 129.81 61.22 143.41 61.22 151.35"/>
      <path class="st0" d="M140.47,151.35h4.87l2.76-4.98h.14l2.76,4.98h4.87l3.08-18.62h-5.43l-1.72,10.68h-.19l-3.32-5.69h-.24l-3.32,5.69h-.19l-1.72-10.68h-5.43l3.08,18.62ZM128.93,145.41c-1.5,0-2.69-1.51-2.69-3.42s1.19-3.39,2.69-3.39,2.67,1.51,2.67,3.39-1.19,3.42-2.67,3.42M128.93,151.66c4.17,0,7.56-4.31,7.56-9.63s-3.39-9.6-7.56-9.6-7.59,4.31-7.59,9.6,3.39,9.63,7.59,9.63M112.37,146.37v-13.63h-4.97v18.62h12.97v-4.98h-8ZM97.46,146.37v-13.63h-4.97v18.62h12.97v-4.98h-8ZM89.83,137.72v-4.99h-13.94v18.62h13.94v-4.98h-8.97v-1.85h8.97v-4.98h-8.97v-1.82h8.97Z"/>
    </g>
    <path class="st4" d="M4.38,101.52c0,53.93,43.72,97.64,97.64,97.64s97.64-43.72,97.64-97.64S155.95,3.88,102.02,3.88,4.38,47.6,4.38,101.52"/>
  </g>
  <g>
    <path class="st0" d="M170.37,15.59c.32-.06.79-.1,1.22-.1.68,0,1.13.13,1.43.4.24.22.39.56.39.95,0,.65-.41,1.08-.92,1.25v.02c.37.13.6.48.72,1,.16.69.28,1.17.38,1.36h-.66c-.08-.15-.19-.56-.32-1.18-.15-.68-.42-.94-1-.96h-.6v2.14h-.64v-4.88ZM171,17.84h.65c.68,0,1.11-.37,1.11-.94,0-.64-.46-.92-1.14-.92-.31,0-.52.02-.63.05v1.8Z"/>
    <path class="st0" d="M171.95,24.22c-3.53,0-6.41-2.88-6.41-6.41s2.88-6.41,6.41-6.41,6.41,2.88,6.41,6.41-2.88,6.41-6.41,6.41ZM171.95,12.02c-3.2,0-5.8,2.6-5.8,5.8s2.6,5.8,5.8,5.8,5.8-2.6,5.8-5.8-2.6-5.8-5.8-5.8Z"/>
  </g>
</svg>